<svg width="32" height="32" viewBox="0 0 32 32" fill="none" xmlns="http://www.w3.org/2000/svg">
  <defs>
    <linearGradient id="grad1" x1="0%" y1="0%" x2="100%" y2="100%">
      <stop offset="0%" style="stop-color:#10b981;stop-opacity:1" />
      <stop offset="100%" style="stop-color:#059669;stop-opacity:1" />
    </linearGradient>
  </defs>
  <circle cx="16" cy="16" r="14" fill="url(#grad1)"/>
  <path d="M16 6C10.477 6 6 10.477 6 16s4.477 10 10 10 10-4.477 10-10S21.523 6 16 6zm0 2c4.418 0 8 3.582 8 8s-3.582 8-8 8-8-3.582-8-8 3.582-8 8-8z" fill="white" fill-opacity="0.3"/>
  <circle cx="16" cy="16" r="4" fill="white"/>
  <path d="M16 8v4M16 20v4M8 16h4M20 16h4" stroke="white" stroke-width="1.5" stroke-linecap="round" stroke-opacity="0.6"/>
</svg>


